C:\Users\r0593348\3dpredictsim\Results\Batchsim_tmt_linear_v2\Pog_s1_tmt_bCst_d02_k500_ig24_pas_GRF.mot
nRows=12
nColumns=19

name C:\Users\r0593348\3dpredictsim\Results\Batchsim_tmt_linear_v2\Pog_s1_tmt_bCst_d02_k500_ig24_pas_GRF.mot
datacolumns 19
datarows 12
range 0.0000000000 0.1206634671
endheader
time 	ground_force_vx	ground_force_vy	ground_force_vz	ground_force_px	ground_force_py	ground_force_pz	1_ground_force_vx	1_ground_force_vy	1_ground_force_vz	1_ground_force_px	1_ground_force_py	1_ground_force_pz	ground_torque_x	ground_torque_y	ground_torque_z	1_ground_torque_x	1_ground_torque_y	1_ground_torque_z
        0.0000000000	      -76.3988003301	       60.5074459187	       20.0729852215	        0.1613790942	        0.0000000000	        0.0453599517	       97.6483210418	      413.5285858810	        1.7325815128	       -0.3524235993	        0.0000000000	       -0.0437751131	        0.0000000000	        0.0000000000	        0.0000000000	        0.0000000000	        0.0000000000	        0.0000000000	
        0.0109694061	     -137.7477610724	      143.6764604695	       52.3954818427	        0.1690257822	        0.0000000000	        0.0436541648	       58.3899227916	      302.7710095713	       -4.4768531319	       -0.3326866866	        0.0000000000	       -0.0399092864	        0.0000000000	        0.0000000000	        0.0000000000	        0.0000000000	        0.0000000000	        0.0000000000	
        0.0219388122	      -70.3177868754	      309.4199795688	       20.1083887927	        0.1754081616	        0.0000000000	        0.0419536753	       22.8737998656	      201.4203588233	       -8.7982325035	       -0.3020253953	        0.0000000000	       -0.0327378414	        0.0000000000	        0.0000000000	        0.0000000000	        0.0000000000	        0.0000000000	        0.0000000000	
        0.0329082183	      -73.5764657849	      521.6158468799	       -0.9204175350	        0.1809397159	        0.0000000000	        0.0426616243	        2.3672261687	      147.7227530088	      -10.9497904019	       -0.2799102264	        0.0000000000	       -0.0254305457	        0.0000000000	        0.0000000000	        0.0000000000	        0.0000000000	        0.0000000000	        0.0000000000	
        0.0438776244	     -114.8638099216	      789.1564507237	      -14.4581591547	        0.1911476327	        0.0000000000	        0.0454815700	       -0.3260539542	      116.7715952274	      -10.6039105415	       -0.2801221945	        0.0000000000	       -0.0257449003	        0.0000000000	        0.0000000000	        0.0000000000	        0.0000000000	        0.0000000000	        0.0000000000	
        0.0548470305	     -140.6039364954	      954.6647073856	      -20.5109185831	        0.1979744279	        0.0000000000	        0.0472874563	       -3.2531243330	       77.0425317280	       -9.9455907598	       -0.2796431320	        0.0000000000	       -0.0258490912	        0.0000000000	        0.0000000000	        0.0000000000	        0.0000000000	        0.0000000000	        0.0000000000	
        0.0658164366	     -143.7705157000	      986.4318545492	      -21.0942336039	        0.2026301214	        0.0000000000	        0.0484095238	       -8.0813900300	       32.3659057246	       -6.1386295951	       -0.2799020630	        0.0000000000	       -0.0258900916	        0.0000000000	        0.0000000000	        0.0000000000	        0.0000000000	        0.0000000000	        0.0000000000	
        0.0767858427	     -131.6849987154	      943.6391063967	      -21.0740427206	        0.2063961632	        0.0000000000	        0.0491706929	        0.1320196980	       -0.1335290750	        0.0094335230	        0.0000000000	        0.0000000000	        0.0000000000	        0.0000000000	        0.0000000000	        0.0000000000	        0.0000000000	        0.0000000000	        0.0000000000	
        0.0877552488	     -113.9559223967	      877.5648687987	      -19.7219595988	        0.2102030046	        0.0000000000	        0.0497641969	        0.0001702397	       -0.0001418129	       -0.0000040954	        0.0000000000	        0.0000000000	        0.0000000000	        0.0000000000	        0.0000000000	        0.0000000000	        0.0000000000	        0.0000000000	        0.0000000000	
        0.0987246549	     -100.5509846056	      822.1547236869	      -18.9968978540	        0.2147670972	        0.0000000000	        0.0504692694	        0.0000911301	       -0.0000664327	       -0.0000038705	        0.0000000000	        0.0000000000	        0.0000000000	        0.0000000000	        0.0000000000	        0.0000000000	        0.0000000000	        0.0000000000	        0.0000000000	
        0.1096940610	      -92.3784447536	      785.0308824379	      -18.4755054214	        0.2205905204	        0.0000000000	        0.0507950294	        0.0008955824	       -0.0005854910	       -0.0000455635	        0.0000000000	        0.0000000000	        0.0000000000	        0.0000000000	        0.0000000000	        0.0000000000	        0.0000000000	        0.0000000000	        0.0000000000	
        0.1206634671	      -83.1613821479	      747.1536269846	      -17.9479495885	        0.2264815273	        0.0000000000	        0.0508811034	        0.0083193643	       -0.0049820618	       -0.0004560975	        0.0000000000	        0.0000000000	        0.0000000000	        0.0000000000	        0.0000000000	        0.0000000000	        0.0000000000	        0.0000000000	        0.0000000000	
